<svg xmlns="http://www.w3.org/2000/svg" xmlns:xlink="http://www.w3.org/1999/xlink" width="300" zoomAndPan="magnify" viewBox="0 0 224.87999 74.999997" height="100" preserveAspectRatio="xMidYMid meet" version="1.0"><defs><clipPath id="534fc6adb9"><path d="M 0 15.683594 L 224.675781 15.683594 L 224.675781 74.902344 L 0 74.902344 Z M 0 15.683594 " clip-rule="nonzero"/></clipPath></defs><g clip-path="url(#534fc6adb9)"><path d="M 26.617188 15.683594 C 27.925781 15.566406 29.085938 15.644531 30.316406 16.144531 C 32.398438 17.175781 33.898438 18.777344 35.1875 20.675781 C 40.128906 28.179688 41.703125 38.109375 43.882812 46.671875 C 46.535156 59.398438 46.535156 59.398438 52.847656 70.421875 C 53.410156 70.945312 53.988281 71.28125 54.675781 71.609375 C 55.492188 71.78125 56.316406 71.820312 57.132812 71.621094 C 58.207031 71.207031 59.007812 70.386719 59.753906 69.535156 C 64.722656 63.296875 66.222656 53.664062 68.101562 46.097656 C 73.546875 24.199219 73.546875 24.199219 77.796875 19.15625 L 78.089844 18.792969 C 79.125 17.558594 80.359375 16.675781 81.863281 16.097656 L 82.320312 15.941406 C 82.652344 15.855469 82.652344 15.855469 82.804688 15.683594 C 84.226562 15.539062 85.433594 15.699219 86.75 16.269531 C 87.441406 16.597656 88.050781 17.003906 88.644531 17.488281 L 88.9375 17.71875 C 90.980469 19.398438 92.277344 21.941406 93.371094 24.300781 L 93.515625 24.601562 C 96.800781 31.617188 98.386719 39.570312 100.238281 47.042969 C 102.875 59.601562 102.875 59.601562 109.167969 70.445312 C 109.722656 70.980469 110.265625 71.410156 111.015625 71.644531 C 111.796875 71.796875 112.574219 71.792969 113.351562 71.625 C 114.339844 71.277344 115.0625 70.660156 115.765625 69.894531 C 121.074219 63.347656 122.59375 53.167969 124.59375 45.207031 C 130.050781 23.476562 130.050781 23.476562 134.789062 18.363281 C 135.820312 17.300781 136.929688 16.410156 138.375 15.988281 L 138.722656 15.898438 C 138.988281 15.84375 138.988281 15.84375 139.128906 15.683594 C 140.546875 15.539062 141.757812 15.691406 143.066406 16.261719 C 144.867188 17.117188 146.261719 18.59375 147.390625 20.210938 C 149.234375 22.925781 150.445312 25.945312 151.507812 29.035156 C 151.632812 29.402344 151.761719 29.769531 151.890625 30.136719 C 153.367188 34.351562 154.371094 38.738281 155.46875 43.0625 C 155.800781 44.359375 156.128906 45.65625 156.460938 46.953125 C 156.605469 47.511719 156.746094 48.074219 156.890625 48.632812 C 157.890625 52.582031 158.964844 56.515625 160.261719 60.382812 L 160.363281 60.691406 C 161.007812 62.609375 161.753906 64.460938 162.632812 66.28125 L 162.785156 66.601562 C 163.535156 68.148438 164.496094 69.769531 165.871094 70.851562 C 166.511719 71.273438 167.21875 71.652344 167.988281 71.746094 C 168.792969 71.78125 169.421875 71.710938 170.160156 71.375 C 171.566406 70.585938 172.503906 69.410156 173.324219 68.050781 C 176.085938 63.304688 177.554688 57.8125 178.964844 52.539062 C 179.039062 52.257812 179.117188 51.976562 179.191406 51.695312 C 179.84375 49.308594 180.449219 46.914062 181.042969 44.515625 C 181.984375 40.722656 182.953125 36.945312 184.050781 33.199219 L 184.144531 32.882812 C 185.171875 29.371094 186.320312 25.859375 188.085938 22.632812 L 188.21875 22.378906 C 188.863281 21.175781 189.597656 20.085938 190.449219 19.019531 L 190.664062 18.738281 C 191.652344 17.507812 192.921875 16.738281 194.34375 16.097656 L 194.617188 15.957031 C 195.476562 15.550781 196.472656 15.578125 197.402344 15.644531 C 198.152344 15.742188 198.816406 16.042969 199.488281 16.378906 L 199.851562 16.554688 C 201.652344 17.539062 203 19.109375 204.078125 20.824219 C 205.09375 22.519531 205.992188 24.273438 206.722656 26.109375 L 206.859375 26.445312 C 209.339844 32.628906 210.796875 39.210938 212.425781 45.65625 C 213.742188 50.914062 213.742188 50.914062 215.203125 56.132812 C 215.234375 56.238281 215.265625 56.34375 215.300781 56.453125 C 216.421875 60.214844 217.644531 63.925781 219.515625 67.394531 L 219.746094 67.839844 C 220.472656 69.179688 221.4375 70.40625 222.734375 71.234375 C 223.382812 71.617188 223.859375 71.664062 224.664062 71.84375 L 224.664062 74.902344 C 223.308594 74.902344 222.515625 74.773438 221.324219 74.207031 C 220.726562 73.832031 220.1875 73.414062 219.65625 72.953125 L 219.382812 72.726562 C 215.84375 69.46875 214.210938 63.972656 212.804688 59.523438 C 211.152344 54.230469 209.820312 48.832031 208.488281 43.449219 C 207.261719 38.484375 205.925781 33.570312 204.21875 28.75 L 204.050781 28.273438 C 203.101562 25.625 201.894531 22.976562 200.046875 20.824219 L 199.796875 20.535156 C 199.230469 19.925781 198.585938 19.484375 197.820312 19.15625 C 197.128906 18.988281 196.4375 18.917969 195.738281 19.082031 C 194.722656 19.425781 193.847656 20.023438 193.109375 20.792969 C 187.589844 27.320312 186.097656 37.777344 184.070312 45.847656 C 178.621094 67.5 178.621094 67.5 173.917969 72.511719 L 173.621094 72.816406 L 173.355469 73.085938 C 172.433594 73.960938 171.230469 74.582031 170.003906 74.902344 C 168.664062 75.035156 167.214844 75.078125 165.9375 74.613281 C 165.140625 74.246094 164.429688 73.777344 163.746094 73.234375 L 163.335938 72.910156 C 162.882812 72.53125 162.523438 72.101562 162.164062 71.632812 L 161.964844 71.375 C 155.855469 63.367188 154.261719 51.570312 151.832031 42.027344 C 149.351562 31.019531 149.351562 31.019531 144.078125 21.238281 C 143.914062 21.03125 143.753906 20.816406 143.605469 20.601562 C 142.996094 19.9375 142.25 19.433594 141.414062 19.097656 C 140.535156 18.953125 139.824219 18.933594 138.972656 19.246094 C 138.394531 19.496094 137.960938 19.808594 137.511719 20.246094 L 137.320312 20.410156 L 137.042969 20.410156 L 136.929688 20.65625 C 136.765625 20.964844 136.582031 21.195312 136.355469 21.460938 C 133.171875 25.527344 131.808594 31 130.414062 35.886719 L 130.308594 36.261719 C 129.449219 39.277344 128.6875 42.3125 127.933594 45.351562 C 127.140625 48.546875 126.335938 51.734375 125.453125 54.902344 L 125.351562 55.269531 C 123.761719 60.960938 122.082031 66.96875 118.40625 71.703125 L 118.164062 72.027344 C 117.210938 73.199219 115.945312 74.046875 114.566406 74.640625 C 113.332031 75.09375 111.910156 75.023438 110.617188 74.902344 C 109.410156 74.660156 108.367188 74.046875 107.445312 73.238281 L 107.140625 72.953125 L 106.859375 72.703125 C 102.847656 68.976562 101.28125 62.800781 99.730469 57.742188 C 98.511719 53.695312 97.507812 49.582031 96.476562 45.484375 C 93.695312 32.035156 93.695312 32.035156 87.066406 20.328125 C 86.433594 19.75 85.699219 19.320312 84.875 19.070312 C 84.1875 18.9375 83.550781 18.976562 82.882812 19.167969 C 81.765625 19.578125 80.914062 20.414062 80.15625 21.304688 C 79.125 22.644531 78.371094 24.167969 77.65625 25.691406 L 77.527344 25.96875 C 74.574219 32.328125 73.160156 39.460938 71.453125 46.226562 C 66.433594 66.128906 66.433594 66.128906 62.777344 70.871094 L 62.480469 71.261719 C 61.335938 72.722656 60.03125 73.960938 58.300781 74.667969 C 57.003906 75.066406 55.472656 75.109375 54.144531 74.84375 C 53.121094 74.5625 52.203125 74.019531 51.371094 73.371094 L 51.066406 73.136719 C 47.988281 70.578125 46.410156 66.40625 45.0625 62.761719 C 43.4375 58.289062 42.265625 53.660156 41.101562 49.050781 L 40.992188 48.621094 C 40.632812 47.1875 40.273438 45.753906 39.917969 44.320312 C 39.199219 41.417969 38.449219 38.527344 37.617188 35.65625 L 37.507812 35.265625 C 35.277344 27.238281 35.277344 27.238281 30.789062 20.347656 C 30.25 19.835938 29.664062 19.445312 28.980469 19.15625 C 28.28125 18.988281 27.585938 18.914062 26.882812 19.09375 C 25.757812 19.488281 24.800781 20.207031 24.027344 21.109375 C 22.136719 23.585938 20.980469 26.390625 19.941406 29.304688 L 19.777344 29.75 C 17.78125 35.265625 16.476562 41.035156 15.046875 46.714844 C 11.539062 60.652344 11.539062 60.652344 9.089844 66.144531 L 8.9375 66.488281 C 7.875 68.886719 6.652344 70.964844 4.78125 72.816406 L 4.484375 73.113281 C 3.578125 73.976562 2.375 74.582031 1.164062 74.902344 C -0.226562 75.054688 -1.730469 75.089844 -3.042969 74.554688 C -3.929688 74.136719 -4.65625 73.621094 -5.371094 72.953125 L -5.679688 72.683594 C -8.210938 70.34375 -9.5625 66.910156 -10.796875 63.78125 L -10.9375 63.421875 C -13.273438 57.496094 -14.636719 51.183594 -16.1875 45.019531 C -18.707031 34.257812 -18.707031 34.257812 -22.878906 24.066406 L -23.058594 23.726562 C -23.539062 22.839844 -24.070312 22.03125 -24.703125 21.242188 L -24.917969 20.972656 C -25.246094 20.558594 -25.246094 20.558594 -25.675781 20.269531 L -25.675781 16.65625 C -24.734375 16.8125 -24.734375 16.8125 -24.253906 17.203125 C -21.175781 19.746094 -19.433594 23.269531 -18.027344 26.941406 C -17.101562 29.433594 -16.289062 31.960938 -15.570312 34.519531 L -15.484375 34.824219 C -14.625 37.867188 -13.871094 40.945312 -13.089844 44.007812 C -12.898438 44.761719 -12.707031 45.511719 -12.515625 46.265625 C -12.375 46.804688 -12.238281 47.347656 -12.101562 47.886719 C -11.078125 51.902344 -10.039062 55.925781 -8.703125 59.851562 L -8.597656 60.164062 C -7.449219 63.554688 -6.285156 66.953125 -3.980469 69.757812 L -3.710938 70.117188 C -3.152344 70.777344 -2.402344 71.242188 -1.632812 71.625 C -0.820312 71.773438 0.00390625 71.828125 0.8125 71.613281 C 1.957031 71.144531 2.84375 70.386719 3.597656 69.417969 C 8.589844 62.414062 10.191406 52.773438 12.226562 44.570312 C 17.382812 23.804688 17.382812 23.804688 21.886719 18.742188 L 22.203125 18.386719 C 23.140625 17.390625 24.210938 16.566406 25.503906 16.082031 C 25.742188 16.011719 25.980469 15.945312 26.222656 15.886719 L 26.476562 15.820312 Z M 26.617188 15.683594 " fill-opacity="1" fill-rule="nonzero"/></g></svg>